<svg width="13" height="13" viewBox="0 0 13 13" fill="none" xmlns="http://www.w3.org/2000/svg">
<path d="M9.47917 2.979C8.28449 2.979 7.3125 3.95099 7.3125 5.14567C7.3125 6.34035 8.28449 7.31234 9.47917 7.31234C10.6738 7.31234 11.6458 6.34035 11.6458 5.14567C11.6458 3.95099 10.6738 2.979 9.47917 2.979ZM10.3477 4.93091L9.53524 5.74341C9.48234 5.7963 9.41305 5.82275 9.34375 5.82275C9.27445 5.82275 9.20516 5.7963 9.15226 5.74341L8.6106 5.20174C8.5048 5.09595 8.5048 4.92456 8.6106 4.81877C8.71639 4.71297 8.88778 4.71297 8.99357 4.81877L9.34375 5.16895L9.96476 4.54793C10.0706 4.44214 10.2419 4.44214 10.3477 4.54793C10.4535 4.65373 10.4535 4.82511 10.3477 4.93091Z" fill="#396076"/>
<path d="M5.41973 7.04102C5.34144 7.04102 5.2621 7.04921 5.18222 7.06575C4.76381 7.15263 4.43056 7.49593 4.3528 7.9203C4.27715 8.33356 4.43241 8.732 4.7683 8.98578C4.83601 9.03709 4.87568 9.11696 4.87568 9.20186V9.47878C4.87568 9.77752 5.11875 10.0204 5.41735 10.0204C5.71596 10.0204 5.95902 9.77752 5.95902 9.47878V9.20186C5.95902 9.11696 5.99869 9.03696 6.06666 8.98578C6.34252 8.77723 6.50068 8.46342 6.50068 8.12461C6.50068 7.79718 6.35495 7.49064 6.10052 7.28382C5.90427 7.12406 5.66835 7.04102 5.41973 7.04102ZM5.41735 8.66628C5.1182 8.66628 4.87568 8.42376 4.87568 8.12461C4.87568 7.82545 5.1182 7.58295 5.41735 7.58295C5.7165 7.58295 5.95902 7.82545 5.95902 8.12461C5.95902 8.42376 5.7165 8.66628 5.41735 8.66628Z" fill="#396076"/>
<path d="M6.7847 5.4165H3.79199V4.604C3.79199 3.70755 4.52053 2.979 5.41699 2.979C6.13471 2.979 6.76303 3.47462 6.96886 4.13545C7.19095 3.58025 7.5972 3.11171 8.10908 2.81109C7.51866 1.939 6.522 1.354 5.41699 1.354C3.62408 1.354 2.16699 2.81109 2.16699 4.604V5.4165C1.72011 5.4165 1.35449 5.78212 1.35449 6.229V10.8332C1.35449 11.28 1.72011 11.6457 2.16699 11.6457H8.66699C9.11387 11.6457 9.47949 11.28 9.47949 10.8332V7.854C8.07929 7.854 6.92011 6.7815 6.7847 5.4165ZM6.50033 9.33005V9.479C6.50033 10.0775 6.01554 10.5623 5.41699 10.5623C4.81845 10.5623 4.33366 10.0775 4.33366 9.479V9.33005C3.91116 8.95088 3.71615 8.38754 3.81907 7.82422C3.93554 7.18504 4.43929 6.66775 5.07303 6.53505C5.56054 6.43213 6.06158 6.55401 6.44345 6.86274C6.82262 7.17421 7.04199 7.63463 7.04199 8.12484C7.04199 8.58795 6.847 9.0213 6.50033 9.33005Z" fill="#396076"/>
</svg>
